solid games/p4c-m4z3-666ax
  facet normal -8.253356e-1 -5.646425e-1 0.000000e+0
    outer loop
      vertex 0.000000e+0 0.000000e+0 0.000000e+0
      vertex 9.034280e+0 -1.320537e+1 0.000000e+0
      vertex 9.034280e+0 -1.320537e+1 1.000000e+1
    endloop
  endfacet
  facet normal -8.253356e-1 -5.646425e-1 0.000000e+0
    outer loop
      vertex 0.000000e+0 0.000000e+0 0.000000e+0
      vertex 9.034280e+0 -1.320537e+1 1.000000e+1
      vertex 0.000000e+0 0.000000e+0 1.000000e+1
    endloop
  endfacet
  facet normal 6.502141e-1 -7.597510e-1 0.000000e+0
    outer loop
      vertex 9.034280e+0 -1.320537e+1 0.000000e+0
      vertex 1.165165e+1 -1.096536e+1 0.000000e+0
      vertex 1.165165e+1 -1.096536e+1 1.000000e+1
    endloop
  endfacet
  facet normal 6.502141e-1 -7.597510e-1 0.000000e+0
    outer loop
      vertex 9.034280e+0 -1.320537e+1 0.000000e+0
      vertex 1.165165e+1 -1.096536e+1 1.000000e+1
      vertex 9.034280e+0 -1.320537e+1 1.000000e+1
    endloop
  endfacet
  facet normal 7.977767e-1 -6.029530e-1 0.000000e+0
    outer loop
      vertex 1.165165e+1 -1.096536e+1 0.000000e+0
      vertex 1.372884e+1 -8.216997e+0 0.000000e+0
      vertex 1.372884e+1 -8.216997e+0 1.000000e+1
    endloop
  endfacet
  facet normal 7.977767e-1 -6.029530e-1 0.000000e+0
    outer loop
      vertex 1.165165e+1 -1.096536e+1 0.000000e+0
      vertex 1.372884e+1 -8.216997e+0 1.000000e+1
      vertex 1.165165e+1 -1.096536e+1 1.000000e+1
    endloop
  endfacet
  facet normal 9.083540e-1 -4.182020e-1 0.000000e+0
    outer loop
      vertex 1.372884e+1 -8.216997e+0 0.000000e+0
      vertex 1.516956e+1 -5.087690e+0 0.000000e+0
      vertex 1.516956e+1 -5.087690e+0 1.000000e+1
    endloop
  endfacet
  facet normal 9.083540e-1 -4.182020e-1 0.000000e+0
    outer loop
      vertex 1.372884e+1 -8.216997e+0 0.000000e+0
      vertex 1.516956e+1 -5.087690e+0 1.000000e+1
      vertex 1.372884e+1 -8.216997e+0 1.000000e+1
    endloop
  endfacet
  facet normal 9.768199e-1 -2.140630e-1 0.000000e+0
    outer loop
      vertex 1.516956e+1 -5.087690e+0 0.000000e+0
      vertex 1.590701e+1 -1.722515e+0 0.000000e+0
      vertex 1.590701e+1 -1.722515e+0 1.000000e+1
    endloop
  endfacet
  facet normal 9.768199e-1 -2.140630e-1 0.000000e+0
    outer loop
      vertex 1.516956e+1 -5.087690e+0 0.000000e+0
      vertex 1.590701e+1 -1.722515e+0 1.000000e+1
      vertex 1.516956e+1 -5.087690e+0 1.000000e+1
    endloop
  endfacet
  facet normal 1.000000e+0 0.000000e+0 0.000000e+0
    outer loop
      vertex 1.590701e+1 -1.722515e+0 0.000000e+0
      vertex 1.590701e+1 1.722515e+0 0.000000e+0
      vertex 1.590701e+1 1.722515e+0 1.000000e+1
    endloop
  endfacet
  facet normal 1.000000e+0 0.000000e+0 0.000000e+0
    outer loop
      vertex 1.590701e+1 -1.722515e+0 0.000000e+0
      vertex 1.590701e+1 1.722515e+0 1.000000e+1
      vertex 1.590701e+1 -1.722515e+0 1.000000e+1
    endloop
  endfacet
  facet normal 9.768199e-1 2.140630e-1 0.000000e+0
    outer loop
      vertex 1.590701e+1 1.722515e+0 0.000000e+0
      vertex 1.516956e+1 5.087690e+0 0.000000e+0
      vertex 1.516956e+1 5.087690e+0 1.000000e+1
    endloop
  endfacet
  facet normal 9.768199e-1 2.140630e-1 0.000000e+0
    outer loop
      vertex 1.590701e+1 1.722515e+0 0.000000e+0
      vertex 1.516956e+1 5.087690e+0 1.000000e+1
      vertex 1.590701e+1 1.722515e+0 1.000000e+1
    endloop
  endfacet
  facet normal 9.083540e-1 4.182020e-1 0.000000e+0
    outer loop
      vertex 1.516956e+1 5.087690e+0 0.000000e+0
      vertex 1.372884e+1 8.216997e+0 0.000000e+0
      vertex 1.372884e+1 8.216997e+0 1.000000e+1
    endloop
  endfacet
  facet normal 9.083540e-1 4.182020e-1 0.000000e+0
    outer loop
      vertex 1.516956e+1 5.087690e+0 0.000000e+0
      vertex 1.372884e+1 8.216997e+0 1.000000e+1
      vertex 1.516956e+1 5.087690e+0 1.000000e+1
    endloop
  endfacet
  facet normal 7.977767e-1 6.029530e-1 0.000000e+0
    outer loop
      vertex 1.372884e+1 8.216997e+0 0.000000e+0
      vertex 1.165165e+1 1.096536e+1 0.000000e+0
      vertex 1.165165e+1 1.096536e+1 1.000000e+1
    endloop
  endfacet
  facet normal 7.977767e-1 6.029530e-1 0.000000e+0
    outer loop
      vertex 1.372884e+1 8.216997e+0 0.000000e+0
      vertex 1.165165e+1 1.096536e+1 1.000000e+1
      vertex 1.372884e+1 8.216997e+0 1.000000e+1
    endloop
  endfacet
  facet normal 6.502141e-1 7.597510e-1 0.000000e+0
    outer loop
      vertex 1.165165e+1 1.096536e+1 0.000000e+0
      vertex 9.034280e+0 1.320537e+1 0.000000e+0
      vertex 9.034280e+0 1.320537e+1 1.000000e+1
    endloop
  endfacet
  facet normal 6.502141e-1 7.597510e-1 0.000000e+0
    outer loop
      vertex 1.165165e+1 1.096536e+1 0.000000e+0
      vertex 9.034280e+0 1.320537e+1 1.000000e+1
      vertex 1.165165e+1 1.096536e+1 1.000000e+1
    endloop
  endfacet
  facet normal -8.253356e-1 5.646425e-1 0.000000e+0
    outer loop
      vertex 9.034280e+0 1.320537e+1 0.000000e+0
      vertex 0.000000e+0 0.000000e+0 0.000000e+0
      vertex 0.000000e+0 0.000000e+0 1.000000e+1
    endloop
  endfacet
  facet normal -8.253356e-1 5.646425e-1 0.000000e+0
    outer loop
      vertex 9.034280e+0 1.320537e+1 0.000000e+0
      vertex 0.000000e+0 0.000000e+0 1.000000e+1
      vertex 9.034280e+0 1.320537e+1 1.000000e+1
    endloop
  endfacet
  facet normal 0.000000e+0 0.000000e+0 0.000000e+0
    outer loop
      vertex 0.000000e+0 0.000000e+0 0.000000e+0
      vertex 0.000000e+0 0.000000e+0 0.000000e+0
      vertex 0.000000e+0 0.000000e+0 1.000000e+1
    endloop
  endfacet
  facet normal 0.000000e+0 0.000000e+0 0.000000e+0
    outer loop
      vertex 0.000000e+0 0.000000e+0 0.000000e+0
      vertex 0.000000e+0 0.000000e+0 1.000000e+1
      vertex 0.000000e+0 0.000000e+0 1.000000e+1
    endloop
  endfacet
  facet normal 0.000000e+0 0.000000e+0 -1.000000e+0
    outer loop
      vertex 0.000000e+0 0.000000e+0 1.000000e+1
      vertex 1.165165e+1 -1.096536e+1 1.000000e+1
      vertex 9.034280e+0 -1.320537e+1 1.000000e+1
    endloop
  endfacet
  facet normal 0.000000e+0 0.000000e+0 1.000000e+0
    outer loop
      vertex 0.000000e+0 0.000000e+0 0.000000e+0
      vertex 9.034280e+0 -1.320537e+1 0.000000e+0
      vertex 1.165165e+1 -1.096536e+1 0.000000e+0
    endloop
  endfacet
  facet normal 0.000000e+0 0.000000e+0 -1.000000e+0
    outer loop
      vertex 0.000000e+0 0.000000e+0 1.000000e+1
      vertex 1.372884e+1 -8.216997e+0 1.000000e+1
      vertex 1.165165e+1 -1.096536e+1 1.000000e+1
    endloop
  endfacet
  facet normal 0.000000e+0 0.000000e+0 1.000000e+0
    outer loop
      vertex 0.000000e+0 0.000000e+0 0.000000e+0
      vertex 1.165165e+1 -1.096536e+1 0.000000e+0
      vertex 1.372884e+1 -8.216997e+0 0.000000e+0
    endloop
  endfacet
  facet normal 0.000000e+0 0.000000e+0 -1.000000e+0
    outer loop
      vertex 0.000000e+0 0.000000e+0 1.000000e+1
      vertex 1.516956e+1 -5.087690e+0 1.000000e+1
      vertex 1.372884e+1 -8.216997e+0 1.000000e+1
    endloop
  endfacet
  facet normal 0.000000e+0 0.000000e+0 1.000000e+0
    outer loop
      vertex 0.000000e+0 0.000000e+0 0.000000e+0
      vertex 1.372884e+1 -8.216997e+0 0.000000e+0
      vertex 1.516956e+1 -5.087690e+0 0.000000e+0
    endloop
  endfacet
  facet normal 0.000000e+0 0.000000e+0 -1.000000e+0
    outer loop
      vertex 0.000000e+0 0.000000e+0 1.000000e+1
      vertex 1.590701e+1 -1.722515e+0 1.000000e+1
      vertex 1.516956e+1 -5.087690e+0 1.000000e+1
    endloop
  endfacet
  facet normal 0.000000e+0 0.000000e+0 1.000000e+0
    outer loop
      vertex 0.000000e+0 0.000000e+0 0.000000e+0
      vertex 1.516956e+1 -5.087690e+0 0.000000e+0
      vertex 1.590701e+1 -1.722515e+0 0.000000e+0
    endloop
  endfacet
  facet normal 0.000000e+0 0.000000e+0 -1.000000e+0
    outer loop
      vertex 0.000000e+0 0.000000e+0 1.000000e+1
      vertex 1.590701e+1 1.722515e+0 1.000000e+1
      vertex 1.590701e+1 -1.722515e+0 1.000000e+1
    endloop
  endfacet
  facet normal 0.000000e+0 0.000000e+0 1.000000e+0
    outer loop
      vertex 0.000000e+0 0.000000e+0 0.000000e+0
      vertex 1.590701e+1 -1.722515e+0 0.000000e+0
      vertex 1.590701e+1 1.722515e+0 0.000000e+0
    endloop
  endfacet
  facet normal 0.000000e+0 0.000000e+0 -1.000000e+0
    outer loop
      vertex 0.000000e+0 0.000000e+0 1.000000e+1
      vertex 1.516956e+1 5.087690e+0 1.000000e+1
      vertex 1.590701e+1 1.722515e+0 1.000000e+1
    endloop
  endfacet
  facet normal 0.000000e+0 0.000000e+0 1.000000e+0
    outer loop
      vertex 0.000000e+0 0.000000e+0 0.000000e+0
      vertex 1.590701e+1 1.722515e+0 0.000000e+0
      vertex 1.516956e+1 5.087690e+0 0.000000e+0
    endloop
  endfacet
  facet normal 0.000000e+0 0.000000e+0 -1.000000e+0
    outer loop
      vertex 0.000000e+0 0.000000e+0 1.000000e+1
      vertex 1.372884e+1 8.216997e+0 1.000000e+1
      vertex 1.516956e+1 5.087690e+0 1.000000e+1
    endloop
  endfacet
  facet normal 0.000000e+0 0.000000e+0 1.000000e+0
    outer loop
      vertex 0.000000e+0 0.000000e+0 0.000000e+0
      vertex 1.516956e+1 5.087690e+0 0.000000e+0
      vertex 1.372884e+1 8.216997e+0 0.000000e+0
    endloop
  endfacet
  facet normal 0.000000e+0 0.000000e+0 -1.000000e+0
    outer loop
      vertex 0.000000e+0 0.000000e+0 1.000000e+1
      vertex 1.165165e+1 1.096536e+1 1.000000e+1
      vertex 1.372884e+1 8.216997e+0 1.000000e+1
    endloop
  endfacet
  facet normal 0.000000e+0 0.000000e+0 1.000000e+0
    outer loop
      vertex 0.000000e+0 0.000000e+0 0.000000e+0
      vertex 1.372884e+1 8.216997e+0 0.000000e+0
      vertex 1.165165e+1 1.096536e+1 0.000000e+0
    endloop
  endfacet
  facet normal 0.000000e+0 0.000000e+0 -1.000000e+0
    outer loop
      vertex 0.000000e+0 0.000000e+0 1.000000e+1
      vertex 9.034280e+0 1.320537e+1 1.000000e+1
      vertex 1.165165e+1 1.096536e+1 1.000000e+1
    endloop
  endfacet
  facet normal 0.000000e+0 0.000000e+0 1.000000e+0
    outer loop
      vertex 0.000000e+0 0.000000e+0 0.000000e+0
      vertex 1.165165e+1 1.096536e+1 0.000000e+0
      vertex 9.034280e+0 1.320537e+1 0.000000e+0
    endloop
  endfacet
  facet normal 0.000000e+0 0.000000e+0 0.000000e+0
    outer loop
      vertex 0.000000e+0 0.000000e+0 1.000000e+1
      vertex 0.000000e+0 0.000000e+0 1.000000e+1
      vertex 9.034280e+0 1.320537e+1 1.000000e+1
    endloop
  endfacet
  facet normal 0.000000e+0 0.000000e+0 0.000000e+0
    outer loop
      vertex 0.000000e+0 0.000000e+0 0.000000e+0
      vertex 9.034280e+0 1.320537e+1 0.000000e+0
      vertex 0.000000e+0 0.000000e+0 0.000000e+0
    endloop
  endfacet
  facet normal 0.000000e+0 0.000000e+0 0.000000e+0
    outer loop
      vertex 2.200000e+1 0.000000e+0 7.500000e+0
      vertex 2.200000e+1 0.000000e+0 7.500000e+0
      vertex 2.308253e+1 6.250000e-1 7.165064e+0
    endloop
  endfacet
  facet normal -2.581989e-1 -6.918418e-2 -9.636114e-1
    outer loop
      vertex 2.200000e+1 0.000000e+0 7.500000e+0
      vertex 2.308253e+1 6.250000e-1 7.165064e+0
      vertex 2.325000e+1 0.000000e+0 7.165064e+0
    endloop
  endfacet
  facet normal 0.000000e+0 0.000000e+0 0.000000e+0
    outer loop
      vertex 2.200000e+1 0.000000e+0 7.500000e+0
      vertex 2.200000e+1 0.000000e+0 7.500000e+0
      vertex 2.262500e+1 1.082532e+0 7.165064e+0
    endloop
  endfacet
  facet normal -1.890147e-1 -1.890147e-1 -9.636114e-1
    outer loop
      vertex 2.200000e+1 0.000000e+0 7.500000e+0
      vertex 2.262500e+1 1.082532e+0 7.165064e+0
      vertex 2.308253e+1 6.250000e-1 7.165064e+0
    endloop
  endfacet
  facet normal 0.000000e+0 0.000000e+0 0.000000e+0
    outer loop
      vertex 2.200000e+1 0.000000e+0 7.500000e+0
      vertex 2.200000e+1 0.000000e+0 7.500000e+0
      vertex 2.200000e+1 1.250000e+0 7.165064e+0
    endloop
  endfacet
  facet normal -6.918418e-2 -2.581989e-1 -9.636114e-1
    outer loop
      vertex 2.200000e+1 0.000000e+0 7.500000e+0
      vertex 2.200000e+1 1.250000e+0 7.165064e+0
      vertex 2.262500e+1 1.082532e+0 7.165064e+0
    endloop
  endfacet
  facet normal 0.000000e+0 0.000000e+0 0.000000e+0
    outer loop
      vertex 2.200000e+1 0.000000e+0 7.500000e+0
      vertex 2.200000e+1 0.000000e+0 7.500000e+0
      vertex 2.137500e+1 1.082532e+0 7.165064e+0
    endloop
  endfacet
  facet normal 6.918418e-2 -2.581989e-1 -9.636114e-1
    outer loop
      vertex 2.200000e+1 0.000000e+0 7.500000e+0
      vertex 2.137500e+1 1.082532e+0 7.165064e+0
      vertex 2.200000e+1 1.250000e+0 7.165064e+0
    endloop
  endfacet
  facet normal 0.000000e+0 0.000000e+0 0.000000e+0
    outer loop
      vertex 2.200000e+1 0.000000e+0 7.500000e+0
      vertex 2.200000e+1 0.000000e+0 7.500000e+0
      vertex 2.091747e+1 6.250000e-1 7.165064e+0
    endloop
  endfacet
  facet normal 1.890147e-1 -1.890147e-1 -9.636114e-1
    outer loop
      vertex 2.200000e+1 0.000000e+0 7.500000e+0
      vertex 2.091747e+1 6.250000e-1 7.165064e+0
      vertex 2.137500e+1 1.082532e+0 7.165064e+0
    endloop
  endfacet
  facet normal 0.000000e+0 0.000000e+0 0.000000e+0
    outer loop
      vertex 2.200000e+1 0.000000e+0 7.500000e+0
      vertex 2.200000e+1 0.000000e+0 7.500000e+0
      vertex 2.075000e+1 1.530808e-16 7.165064e+0
    endloop
  endfacet
  facet normal 2.581989e-1 -6.918418e-2 -9.636114e-1
    outer loop
      vertex 2.200000e+1 0.000000e+0 7.500000e+0
      vertex 2.075000e+1 1.530808e-16 7.165064e+0
      vertex 2.091747e+1 6.250000e-1 7.165064e+0
    endloop
  endfacet
  facet normal 0.000000e+0 0.000000e+0 0.000000e+0
    outer loop
      vertex 2.200000e+1 0.000000e+0 7.500000e+0
      vertex 2.200000e+1 0.000000e+0 7.500000e+0
      vertex 2.091747e+1 -6.250000e-1 7.165064e+0
    endloop
  endfacet
  facet normal 2.581989e-1 6.918418e-2 -9.636114e-1
    outer loop
      vertex 2.200000e+1 0.000000e+0 7.500000e+0
      vertex 2.091747e+1 -6.250000e-1 7.165064e+0
      vertex 2.075000e+1 1.530808e-16 7.165064e+0
    endloop
  endfacet
  facet normal 0.000000e+0 0.000000e+0 0.000000e+0
    outer loop
      vertex 2.200000e+1 0.000000e+0 7.500000e+0
      vertex 2.200000e+1 0.000000e+0 7.500000e+0
      vertex 2.137500e+1 -1.082532e+0 7.165064e+0
    endloop
  endfacet
  facet normal 1.890147e-1 1.890147e-1 -9.636114e-1
    outer loop
      vertex 2.200000e+1 0.000000e+0 7.500000e+0
      vertex 2.137500e+1 -1.082532e+0 7.165064e+0
      vertex 2.091747e+1 -6.250000e-1 7.165064e+0
    endloop
  endfacet
  facet normal 0.000000e+0 0.000000e+0 0.000000e+0
    outer loop
      vertex 2.200000e+1 0.000000e+0 7.500000e+0
      vertex 2.200000e+1 0.000000e+0 7.500000e+0
      vertex 2.200000e+1 -1.250000e+0 7.165064e+0
    endloop
  endfacet
  facet normal 6.918418e-2 2.581989e-1 -9.636114e-1
    outer loop
      vertex 2.200000e+1 0.000000e+0 7.500000e+0
      vertex 2.200000e+1 -1.250000e+0 7.165064e+0
      vertex 2.137500e+1 -1.082532e+0 7.165064e+0
    endloop
  endfacet
  facet normal 0.000000e+0 0.000000e+0 0.000000e+0
    outer loop
      vertex 2.200000e+1 0.000000e+0 7.500000e+0
      vertex 2.200000e+1 0.000000e+0 7.500000e+0
      vertex 2.262500e+1 -1.082532e+0 7.165064e+0
    endloop
  endfacet
  facet normal -6.918418e-2 2.581989e-1 -9.636114e-1
    outer loop
      vertex 2.200000e+1 0.000000e+0 7.500000e+0
      vertex 2.262500e+1 -1.082532e+0 7.165064e+0
      vertex 2.200000e+1 -1.250000e+0 7.165064e+0
    endloop
  endfacet
  facet normal 0.000000e+0 0.000000e+0 0.000000e+0
    outer loop
      vertex 2.200000e+1 0.000000e+0 7.500000e+0
      vertex 2.200000e+1 0.000000e+0 7.500000e+0
      vertex 2.308253e+1 -6.250000e-1 7.165064e+0
    endloop
  endfacet
  facet normal -1.890147e-1 1.890147e-1 -9.636114e-1
    outer loop
      vertex 2.200000e+1 0.000000e+0 7.500000e+0
      vertex 2.308253e+1 -6.250000e-1 7.165064e+0
      vertex 2.262500e+1 -1.082532e+0 7.165064e+0
    endloop
  endfacet
  facet normal 0.000000e+0 0.000000e+0 0.000000e+0
    outer loop
      vertex 2.200000e+1 0.000000e+0 7.500000e+0
      vertex 2.200000e+1 0.000000e+0 7.500000e+0
      vertex 2.325000e+1 -3.061617e-16 7.165064e+0
    endloop
  endfacet
  facet normal -2.581989e-1 6.918418e-2 -9.636114e-1
    outer loop
      vertex 2.200000e+1 0.000000e+0 7.500000e+0
      vertex 2.325000e+1 -3.061617e-16 7.165064e+0
      vertex 2.308253e+1 -6.250000e-1 7.165064e+0
    endloop
  endfacet
  facet normal -6.947466e-1 -1.861568e-1 -6.947466e-1
    outer loop
      vertex 2.325000e+1 0.000000e+0 7.165064e+0
      vertex 2.308253e+1 6.250000e-1 7.165064e+0
      vertex 2.387500e+1 1.082532e+0 6.250000e+0
    endloop
  endfacet
  facet normal -6.947466e-1 -1.861568e-1 -6.947466e-1
    outer loop
      vertex 2.325000e+1 0.000000e+0 7.165064e+0
      vertex 2.387500e+1 1.082532e+0 6.250000e+0
      vertex 2.416506e+1 0.000000e+0 6.250000e+0
    endloop
  endfacet
  facet normal -5.085898e-1 -5.085898e-1 -6.947466e-1
    outer loop
      vertex 2.308253e+1 6.250000e-1 7.165064e+0
      vertex 2.262500e+1 1.082532e+0 7.165064e+0
      vertex 2.308253e+1 1.875000e+0 6.250000e+0
    endloop
  endfacet
  facet normal -5.085898e-1 -5.085898e-1 -6.947466e-1
    outer loop
      vertex 2.308253e+1 6.250000e-1 7.165064e+0
      vertex 2.308253e+1 1.875000e+0 6.250000e+0
      vertex 2.387500e+1 1.082532e+0 6.250000e+0
    endloop
  endfacet
  facet normal -1.861568e-1 -6.947466e-1 -6.947466e-1
    outer loop
      vertex 2.262500e+1 1.082532e+0 7.165064e+0
      vertex 2.200000e+1 1.250000e+0 7.165064e+0
      vertex 2.200000e+1 2.165064e+0 6.250000e+0
    endloop
  endfacet
  facet normal -1.861568e-1 -6.947466e-1 -6.947466e-1
    outer loop
      vertex 2.262500e+1 1.082532e+0 7.165064e+0
      vertex 2.200000e+1 2.165064e+0 6.250000e+0
      vertex 2.308253e+1 1.875000e+0 6.250000e+0
    endloop
  endfacet
  facet normal 1.861568e-1 -6.947466e-1 -6.947466e-1
    outer loop
      vertex 2.200000e+1 1.250000e+0 7.165064e+0
      vertex 2.137500e+1 1.082532e+0 7.165064e+0
      vertex 2.091747e+1 1.875000e+0 6.250000e+0
    endloop
  endfacet
  facet normal 1.861568e-1 -6.947466e-1 -6.947466e-1
    outer loop
      vertex 2.200000e+1 1.250000e+0 7.165064e+0
      vertex 2.091747e+1 1.875000e+0 6.250000e+0
      vertex 2.200000e+1 2.165064e+0 6.250000e+0
    endloop
  endfacet
  facet normal 5.085898e-1 -5.085898e-1 -6.947466e-1
    outer loop
      vertex 2.137500e+1 1.082532e+0 7.165064e+0
      vertex 2.091747e+1 6.250000e-1 7.165064e+0
      vertex 2.012500e+1 1.082532e+0 6.250000e+0
    endloop
  endfacet
  facet normal 5.085898e-1 -5.085898e-1 -6.947466e-1
    outer loop
      vertex 2.137500e+1 1.082532e+0 7.165064e+0
      vertex 2.012500e+1 1.082532e+0 6.250000e+0
      vertex 2.091747e+1 1.875000e+0 6.250000e+0
    endloop
  endfacet
  facet normal 6.947466e-1 -1.861568e-1 -6.947466e-1
    outer loop
      vertex 2.091747e+1 6.250000e-1 7.165064e+0
      vertex 2.075000e+1 1.530808e-16 7.165064e+0
      vertex 1.983494e+1 2.651438e-16 6.250000e+0
    endloop
  endfacet
  facet normal 6.947466e-1 -1.861568e-1 -6.947466e-1
    outer loop
      vertex 2.091747e+1 6.250000e-1 7.165064e+0
      vertex 1.983494e+1 2.651438e-16 6.250000e+0
      vertex 2.012500e+1 1.082532e+0 6.250000e+0
    endloop
  endfacet
  facet normal 6.947466e-1 1.861568e-1 -6.947466e-1
    outer loop
      vertex 2.075000e+1 1.530808e-16 7.165064e+0
      vertex 2.091747e+1 -6.250000e-1 7.165064e+0
      vertex 2.012500e+1 -1.082532e+0 6.250000e+0
    endloop
  endfacet
  facet normal 6.947466e-1 1.861568e-1 -6.947466e-1
    outer loop
      vertex 2.075000e+1 1.530808e-16 7.165064e+0
      vertex 2.012500e+1 -1.082532e+0 6.250000e+0
      vertex 1.983494e+1 2.651438e-16 6.250000e+0
    endloop
  endfacet
  facet normal 5.085898e-1 5.085898e-1 -6.947466e-1
    outer loop
      vertex 2.091747e+1 -6.250000e-1 7.165064e+0
      vertex 2.137500e+1 -1.082532e+0 7.165064e+0
      vertex 2.091747e+1 -1.875000e+0 6.250000e+0
    endloop
  endfacet
  facet normal 5.085898e-1 5.085898e-1 -6.947466e-1
    outer loop
      vertex 2.091747e+1 -6.250000e-1 7.165064e+0
      vertex 2.091747e+1 -1.875000e+0 6.250000e+0
      vertex 2.012500e+1 -1.082532e+0 6.250000e+0
    endloop
  endfacet
  facet normal 1.861568e-1 6.947466e-1 -6.947466e-1
    outer loop
      vertex 2.137500e+1 -1.082532e+0 7.165064e+0
      vertex 2.200000e+1 -1.250000e+0 7.165064e+0
      vertex 2.200000e+1 -2.165064e+0 6.250000e+0
    endloop
  endfacet
  facet normal 1.861568e-1 6.947466e-1 -6.947466e-1
    outer loop
      vertex 2.137500e+1 -1.082532e+0 7.165064e+0
      vertex 2.200000e+1 -2.165064e+0 6.250000e+0
      vertex 2.091747e+1 -1.875000e+0 6.250000e+0
    endloop
  endfacet
  facet normal -1.861568e-1 6.947466e-1 -6.947466e-1
    outer loop
      vertex 2.200000e+1 -1.250000e+0 7.165064e+0
      vertex 2.262500e+1 -1.082532e+0 7.165064e+0
      vertex 2.308253e+1 -1.875000e+0 6.250000e+0
    endloop
  endfacet
  facet normal -1.861568e-1 6.947466e-1 -6.947466e-1
    outer loop
      vertex 2.200000e+1 -1.250000e+0 7.165064e+0
      vertex 2.308253e+1 -1.875000e+0 6.250000e+0
      vertex 2.200000e+1 -2.165064e+0 6.250000e+0
    endloop
  endfacet
  facet normal -5.085898e-1 5.085898e-1 -6.947466e-1
    outer loop
      vertex 2.262500e+1 -1.082532e+0 7.165064e+0
      vertex 2.308253e+1 -6.250000e-1 7.165064e+0
      vertex 2.387500e+1 -1.082532e+0 6.250000e+0
    endloop
  endfacet
  facet normal -5.085898e-1 5.085898e-1 -6.947466e-1
    outer loop
      vertex 2.262500e+1 -1.082532e+0 7.165064e+0
      vertex 2.387500e+1 -1.082532e+0 6.250000e+0
      vertex 2.308253e+1 -1.875000e+0 6.250000e+0
    endloop
  endfacet
  facet normal -6.947466e-1 1.861568e-1 -6.947466e-1
    outer loop
      vertex 2.308253e+1 -6.250000e-1 7.165064e+0
      vertex 2.325000e+1 -3.061617e-16 7.165064e+0
      vertex 2.416506e+1 -5.302876e-16 6.250000e+0
    endloop
  endfacet
  facet normal -6.947466e-1 1.861568e-1 -6.947466e-1
    outer loop
      vertex 2.308253e+1 -6.250000e-1 7.165064e+0
      vertex 2.416506e+1 -5.302876e-16 6.250000e+0
      vertex 2.387500e+1 -1.082532e+0 6.250000e+0
    endloop
  endfacet
  facet normal -9.351131e-1 -2.505628e-1 -2.505628e-1
    outer loop
      vertex 2.416506e+1 0.000000e+0 6.250000e+0
      vertex 2.387500e+1 1.082532e+0 6.250000e+0
      vertex 2.416506e+1 1.250000e+0 5.000000e+0
    endloop
  endfacet
  facet normal -9.351131e-1 -2.505628e-1 -2.505628e-1
    outer loop
      vertex 2.416506e+1 0.000000e+0 6.250000e+0
      vertex 2.416506e+1 1.250000e+0 5.000000e+0
      vertex 2.450000e+1 0.000000e+0 5.000000e+0
    endloop
  endfacet
  facet normal -6.845503e-1 -6.845503e-1 -2.505628e-1
    outer loop
      vertex 2.387500e+1 1.082532e+0 6.250000e+0
      vertex 2.308253e+1 1.875000e+0 6.250000e+0
      vertex 2.325000e+1 2.165064e+0 5.000000e+0
    endloop
  endfacet
  facet normal -6.845503e-1 -6.845503e-1 -2.505628e-1
    outer loop
      vertex 2.387500e+1 1.082532e+0 6.250000e+0
      vertex 2.325000e+1 2.165064e+0 5.000000e+0
      vertex 2.416506e+1 1.250000e+0 5.000000e+0
    endloop
  endfacet
  facet normal -2.505628e-1 -9.351131e-1 -2.505628e-1
    outer loop
      vertex 2.308253e+1 1.875000e+0 6.250000e+0
      vertex 2.200000e+1 2.165064e+0 6.250000e+0
      vertex 2.200000e+1 2.500000e+0 5.000000e+0
    endloop
  endfacet
  facet normal -2.505628e-1 -9.351131e-1 -2.505628e-1
    outer loop
      vertex 2.308253e+1 1.875000e+0 6.250000e+0
      vertex 2.200000e+1 2.500000e+0 5.000000e+0
      vertex 2.325000e+1 2.165064e+0 5.000000e+0
    endloop
  endfacet
  facet normal 2.505628e-1 -9.351131e-1 -2.505628e-1
    outer loop
      vertex 2.200000e+1 2.165064e+0 6.250000e+0
      vertex 2.091747e+1 1.875000e+0 6.250000e+0
      vertex 2.075000e+1 2.165064e+0 5.000000e+0
    endloop
  endfacet
  facet normal 2.505628e-1 -9.351131e-1 -2.505628e-1
    outer loop
      vertex 2.200000e+1 2.165064e+0 6.250000e+0
      vertex 2.075000e+1 2.165064e+0 5.000000e+0
      vertex 2.200000e+1 2.500000e+0 5.000000e+0
    endloop
  endfacet
  facet normal 6.845503e-1 -6.845503e-1 -2.505628e-1
    outer loop
      vertex 2.091747e+1 1.875000e+0 6.250000e+0
      vertex 2.012500e+1 1.082532e+0 6.250000e+0
      vertex 1.983494e+1 1.250000e+0 5.000000e+0
    endloop
  endfacet
  facet normal 6.845503e-1 -6.845503e-1 -2.505628e-1
    outer loop
      vertex 2.091747e+1 1.875000e+0 6.250000e+0
      vertex 1.983494e+1 1.250000e+0 5.000000e+0
      vertex 2.075000e+1 2.165064e+0 5.000000e+0
    endloop
  endfacet
  facet normal 9.351131e-1 -2.505628e-1 -2.505628e-1
    outer loop
      vertex 2.012500e+1 1.082532e+0 6.250000e+0
      vertex 1.983494e+1 2.651438e-16 6.250000e+0
      vertex 1.950000e+1 3.061617e-16 5.000000e+0
    endloop
  endfacet
  facet normal 9.351131e-1 -2.505628e-1 -2.505628e-1
    outer loop
      vertex 2.012500e+1 1.082532e+0 6.250000e+0
      vertex 1.950000e+1 3.061617e-16 5.000000e+0
      vertex 1.983494e+1 1.250000e+0 5.000000e+0
    endloop
  endfacet
  facet normal 9.351131e-1 2.505628e-1 -2.505628e-1
    outer loop
      vertex 1.983494e+1 2.651438e-16 6.250000e+0
      vertex 2.012500e+1 -1.082532e+0 6.250000e+0
      vertex 1.983494e+1 -1.250000e+0 5.000000e+0
    endloop
  endfacet
  facet normal 9.351131e-1 2.505628e-1 -2.505628e-1
    outer loop
      vertex 1.983494e+1 2.651438e-16 6.250000e+0
      vertex 1.983494e+1 -1.250000e+0 5.000000e+0
      vertex 1.950000e+1 3.061617e-16 5.000000e+0
    endloop
  endfacet
  facet normal 6.845503e-1 6.845503e-1 -2.505628e-1
    outer loop
      vertex 2.012500e+1 -1.082532e+0 6.250000e+0
      vertex 2.091747e+1 -1.875000e+0 6.250000e+0
      vertex 2.075000e+1 -2.165064e+0 5.000000e+0
    endloop
  endfacet
  facet normal 6.845503e-1 6.845503e-1 -2.505628e-1
    outer loop
      vertex 2.012500e+1 -1.082532e+0 6.250000e+0
      vertex 2.075000e+1 -2.165064e+0 5.000000e+0
      vertex 1.983494e+1 -1.250000e+0 5.000000e+0
    endloop
  endfacet
  facet normal 2.505628e-1 9.351131e-1 -2.505628e-1
    outer loop
      vertex 2.091747e+1 -1.875000e+0 6.250000e+0
      vertex 2.200000e+1 -2.165064e+0 6.250000e+0
      vertex 2.200000e+1 -2.500000e+0 5.000000e+0
    endloop
  endfacet
  facet normal 2.505628e-1 9.351131e-1 -2.505628e-1
    outer loop
      vertex 2.091747e+1 -1.875000e+0 6.250000e+0
      vertex 2.200000e+1 -2.500000e+0 5.000000e+0
      vertex 2.075000e+1 -2.165064e+0 5.000000e+0
    endloop
  endfacet
  facet normal -2.505628e-1 9.351131e-1 -2.505628e-1
    outer loop
      vertex 2.200000e+1 -2.165064e+0 6.250000e+0
      vertex 2.308253e+1 -1.875000e+0 6.250000e+0
      vertex 2.325000e+1 -2.165064e+0 5.000000e+0
    endloop
  endfacet
  facet normal -2.505628e-1 9.351131e-1 -2.505628e-1
    outer loop
      vertex 2.200000e+1 -2.165064e+0 6.250000e+0
      vertex 2.325000e+1 -2.165064e+0 5.000000e+0
      vertex 2.200000e+1 -2.500000e+0 5.000000e+0
    endloop
  endfacet
  facet normal -6.845503e-1 6.845503e-1 -2.505628e-1
    outer loop
      vertex 2.308253e+1 -1.875000e+0 6.250000e+0
      vertex 2.387500e+1 -1.082532e+0 6.250000e+0
      vertex 2.416506e+1 -1.250000e+0 5.000000e+0
    endloop
  endfacet
  facet normal -6.845503e-1 6.845503e-1 -2.505628e-1
    outer loop
      vertex 2.308253e+1 -1.875000e+0 6.250000e+0
      vertex 2.416506e+1 -1.250000e+0 5.000000e+0
      vertex 2.325000e+1 -2.165064e+0 5.000000e+0
    endloop
  endfacet
  facet normal -9.351131e-1 2.505628e-1 -2.505628e-1
    outer loop
      vertex 2.387500e+1 -1.082532e+0 6.250000e+0
      vertex 2.416506e+1 -5.302876e-16 6.250000e+0
      vertex 2.450000e+1 -6.123234e-16 5.000000e+0
    endloop
  endfacet
  facet normal -9.351131e-1 2.505628e-1 -2.505628e-1
    outer loop
      vertex 2.387500e+1 -1.082532e+0 6.250000e+0
      vertex 2.450000e+1 -6.123234e-16 5.000000e+0
      vertex 2.416506e+1 -1.250000e+0 5.000000e+0
    endloop
  endfacet
  facet normal -9.351131e-1 -2.505628e-1 2.505628e-1
    outer loop
      vertex 2.450000e+1 0.000000e+0 5.000000e+0
      vertex 2.416506e+1 1.250000e+0 5.000000e+0
      vertex 2.387500e+1 1.082532e+0 3.750000e+0
    endloop
  endfacet
  facet normal -9.351131e-1 -2.505628e-1 2.505628e-1
    outer loop
      vertex 2.450000e+1 0.000000e+0 5.000000e+0
      vertex 2.387500e+1 1.082532e+0 3.750000e+0
      vertex 2.416506e+1 0.000000e+0 3.750000e+0
    endloop
  endfacet
  facet normal -6.845503e-1 -6.845503e-1 2.505628e-1
    outer loop
      vertex 2.416506e+1 1.250000e+0 5.000000e+0
      vertex 2.325000e+1 2.165064e+0 5.000000e+0
      vertex 2.308253e+1 1.875000e+0 3.750000e+0
    endloop
  endfacet
  facet normal -6.845503e-1 -6.845503e-1 2.505628e-1
    outer loop
      vertex 2.416506e+1 1.250000e+0 5.000000e+0
      vertex 2.308253e+1 1.875000e+0 3.750000e+0
      vertex 2.387500e+1 1.082532e+0 3.750000e+0
    endloop
  endfacet
  facet normal -2.505628e-1 -9.351131e-1 2.505628e-1
    outer loop
      vertex 2.325000e+1 2.165064e+0 5.000000e+0
      vertex 2.200000e+1 2.500000e+0 5.000000e+0
      vertex 2.200000e+1 2.165064e+0 3.750000e+0
    endloop
  endfacet
  facet normal -2.505628e-1 -9.351131e-1 2.505628e-1
    outer loop
      vertex 2.325000e+1 2.165064e+0 5.000000e+0
      vertex 2.200000e+1 2.165064e+0 3.750000e+0
      vertex 2.308253e+1 1.875000e+0 3.750000e+0
    endloop
  endfacet
  facet normal 2.505628e-1 -9.351131e-1 2.505628e-1
    outer loop
      vertex 2.200000e+1 2.500000e+0 5.000000e+0
      vertex 2.075000e+1 2.165064e+0 5.000000e+0
      vertex 2.091747e+1 1.875000e+0 3.750000e+0
    endloop
  endfacet
  facet normal 2.505628e-1 -9.351131e-1 2.505628e-1
    outer loop
      vertex 2.200000e+1 2.500000e+0 5.000000e+0
      vertex 2.091747e+1 1.875000e+0 3.750000e+0
      vertex 2.200000e+1 2.165064e+0 3.750000e+0
    endloop
  endfacet
  facet normal 6.845503e-1 -6.845503e-1 2.505628e-1
    outer loop
      vertex 2.075000e+1 2.165064e+0 5.000000e+0
      vertex 1.983494e+1 1.250000e+0 5.000000e+0
      vertex 2.012500e+1 1.082532e+0 3.750000e+0
    endloop
  endfacet
  facet normal 6.845503e-1 -6.845503e-1 2.505628e-1
    outer loop
      vertex 2.075000e+1 2.165064e+0 5.000000e+0
      vertex 2.012500e+1 1.082532e+0 3.750000e+0
      vertex 2.091747e+1 1.875000e+0 3.750000e+0
    endloop
  endfacet
  facet normal 9.351131e-1 -2.505628e-1 2.505628e-1
    outer loop
      vertex 1.983494e+1 1.250000e+0 5.000000e+0
      vertex 1.950000e+1 3.061617e-16 5.000000e+0
      vertex 1.983494e+1 2.651438e-16 3.750000e+0
    endloop
  endfacet
  facet normal 9.351131e-1 -2.505628e-1 2.505628e-1
    outer loop
      vertex 1.983494e+1 1.250000e+0 5.000000e+0
      vertex 1.983494e+1 2.651438e-16 3.750000e+0
      vertex 2.012500e+1 1.082532e+0 3.750000e+0
    endloop
  endfacet
  facet normal 9.351131e-1 2.505628e-1 2.505628e-1
    outer loop
      vertex 1.950000e+1 3.061617e-16 5.000000e+0
      vertex 1.983494e+1 -1.250000e+0 5.000000e+0
      vertex 2.012500e+1 -1.082532e+0 3.750000e+0
    endloop
  endfacet
  facet normal 9.351131e-1 2.505628e-1 2.505628e-1
    outer loop
      vertex 1.950000e+1 3.061617e-16 5.000000e+0
      vertex 2.012500e+1 -1.082532e+0 3.750000e+0
      vertex 1.983494e+1 2.651438e-16 3.750000e+0
    endloop
  endfacet
  facet normal 6.845503e-1 6.845503e-1 2.505628e-1
    outer loop
      vertex 1.983494e+1 -1.250000e+0 5.000000e+0
      vertex 2.075000e+1 -2.165064e+0 5.000000e+0
      vertex 2.091747e+1 -1.875000e+0 3.750000e+0
    endloop
  endfacet
  facet normal 6.845503e-1 6.845503e-1 2.505628e-1
    outer loop
      vertex 1.983494e+1 -1.250000e+0 5.000000e+0
      vertex 2.091747e+1 -1.875000e+0 3.750000e+0
      vertex 2.012500e+1 -1.082532e+0 3.750000e+0
    endloop
  endfacet
  facet normal 2.505628e-1 9.351131e-1 2.505628e-1
    outer loop
      vertex 2.075000e+1 -2.165064e+0 5.000000e+0
      vertex 2.200000e+1 -2.500000e+0 5.000000e+0
      vertex 2.200000e+1 -2.165064e+0 3.750000e+0
    endloop
  endfacet
  facet normal 2.505628e-1 9.351131e-1 2.505628e-1
    outer loop
      vertex 2.075000e+1 -2.165064e+0 5.000000e+0
      vertex 2.200000e+1 -2.165064e+0 3.750000e+0
      vertex 2.091747e+1 -1.875000e+0 3.750000e+0
    endloop
  endfacet
  facet normal -2.505628e-1 9.351131e-1 2.505628e-1
    outer loop
      vertex 2.200000e+1 -2.500000e+0 5.000000e+0
      vertex 2.325000e+1 -2.165064e+0 5.000000e+0
      vertex 2.308253e+1 -1.875000e+0 3.750000e+0
    endloop
  endfacet
  facet normal -2.505628e-1 9.351131e-1 2.505628e-1
    outer loop
      vertex 2.200000e+1 -2.500000e+0 5.000000e+0
      vertex 2.308253e+1 -1.875000e+0 3.750000e+0
      vertex 2.200000e+1 -2.165064e+0 3.750000e+0
    endloop
  endfacet
  facet normal -6.845503e-1 6.845503e-1 2.505628e-1
    outer loop
      vertex 2.325000e+1 -2.165064e+0 5.000000e+0
      vertex 2.416506e+1 -1.250000e+0 5.000000e+0
      vertex 2.387500e+1 -1.082532e+0 3.750000e+0
    endloop
  endfacet
  facet normal -6.845503e-1 6.845503e-1 2.505628e-1
    outer loop
      vertex 2.325000e+1 -2.165064e+0 5.000000e+0
      vertex 2.387500e+1 -1.082532e+0 3.750000e+0
      vertex 2.308253e+1 -1.875000e+0 3.750000e+0
    endloop
  endfacet
  facet normal -9.351131e-1 2.505628e-1 2.505628e-1
    outer loop
      vertex 2.416506e+1 -1.250000e+0 5.000000e+0
      vertex 2.450000e+1 -6.123234e-16 5.000000e+0
      vertex 2.416506e+1 -5.302876e-16 3.750000e+0
    endloop
  endfacet
  facet normal -9.351131e-1 2.505628e-1 2.505628e-1
    outer loop
      vertex 2.416506e+1 -1.250000e+0 5.000000e+0
      vertex 2.416506e+1 -5.302876e-16 3.750000e+0
      vertex 2.387500e+1 -1.082532e+0 3.750000e+0
    endloop
  endfacet
  facet normal -6.947466e-1 -1.861568e-1 6.947466e-1
    outer loop
      vertex 2.416506e+1 0.000000e+0 3.750000e+0
      vertex 2.387500e+1 1.082532e+0 3.750000e+0
      vertex 2.308253e+1 6.250000e-1 2.834936e+0
    endloop
  endfacet
  facet normal -6.947466e-1 -1.861568e-1 6.947466e-1
    outer loop
      vertex 2.416506e+1 0.000000e+0 3.750000e+0
      vertex 2.308253e+1 6.250000e-1 2.834936e+0
      vertex 2.325000e+1 0.000000e+0 2.834936e+0
    endloop
  endfacet
  facet normal -5.085898e-1 -5.085898e-1 6.947466e-1
    outer loop
      vertex 2.387500e+1 1.082532e+0 3.750000e+0
      vertex 2.308253e+1 1.875000e+0 3.750000e+0
      vertex 2.262500e+1 1.082532e+0 2.834936e+0
    endloop
  endfacet
  facet normal -5.085898e-1 -5.085898e-1 6.947466e-1
    outer loop
      vertex 2.387500e+1 1.082532e+0 3.750000e+0
      vertex 2.262500e+1 1.082532e+0 2.834936e+0
      vertex 2.308253e+1 6.250000e-1 2.834936e+0
    endloop
  endfacet
  facet normal -1.861568e-1 -6.947466e-1 6.947466e-1
    outer loop
      vertex 2.308253e+1 1.875000e+0 3.750000e+0
      vertex 2.200000e+1 2.165064e+0 3.750000e+0
      vertex 2.200000e+1 1.250000e+0 2.834936e+0
    endloop
  endfacet
  facet normal -1.861568e-1 -6.947466e-1 6.947466e-1
    outer loop
      vertex 2.308253e+1 1.875000e+0 3.750000e+0
      vertex 2.200000e+1 1.250000e+0 2.834936e+0
      vertex 2.262500e+1 1.082532e+0 2.834936e+0
    endloop
  endfacet
  facet normal 1.861568e-1 -6.947466e-1 6.947466e-1
    outer loop
      vertex 2.200000e+1 2.165064e+0 3.750000e+0
      vertex 2.091747e+1 1.875000e+0 3.750000e+0
      vertex 2.137500e+1 1.082532e+0 2.834936e+0
    endloop
  endfacet
  facet normal 1.861568e-1 -6.947466e-1 6.947466e-1
    outer loop
      vertex 2.200000e+1 2.165064e+0 3.750000e+0
      vertex 2.137500e+1 1.082532e+0 2.834936e+0
      vertex 2.200000e+1 1.250000e+0 2.834936e+0
    endloop
  endfacet
  facet normal 5.085898e-1 -5.085898e-1 6.947466e-1
    outer loop
      vertex 2.091747e+1 1.875000e+0 3.750000e+0
      vertex 2.012500e+1 1.082532e+0 3.750000e+0
      vertex 2.091747e+1 6.250000e-1 2.834936e+0
    endloop
  endfacet
  facet normal 5.085898e-1 -5.085898e-1 6.947466e-1
    outer loop
      vertex 2.091747e+1 1.875000e+0 3.750000e+0
      vertex 2.091747e+1 6.250000e-1 2.834936e+0
      vertex 2.137500e+1 1.082532e+0 2.834936e+0
    endloop
  endfacet
  facet normal 6.947466e-1 -1.861568e-1 6.947466e-1
    outer loop
      vertex 2.012500e+1 1.082532e+0 3.750000e+0
      vertex 1.983494e+1 2.651438e-16 3.750000e+0
      vertex 2.075000e+1 1.530808e-16 2.834936e+0
    endloop
  endfacet
  facet normal 6.947466e-1 -1.861568e-1 6.947466e-1
    outer loop
      vertex 2.012500e+1 1.082532e+0 3.750000e+0
      vertex 2.075000e+1 1.530808e-16 2.834936e+0
      vertex 2.091747e+1 6.250000e-1 2.834936e+0
    endloop
  endfacet
  facet normal 6.947466e-1 1.861568e-1 6.947466e-1
    outer loop
      vertex 1.983494e+1 2.651438e-16 3.750000e+0
      vertex 2.012500e+1 -1.082532e+0 3.750000e+0
      vertex 2.091747e+1 -6.250000e-1 2.834936e+0
    endloop
  endfacet
  facet normal 6.947466e-1 1.861568e-1 6.947466e-1
    outer loop
      vertex 1.983494e+1 2.651438e-16 3.750000e+0
      vertex 2.091747e+1 -6.250000e-1 2.834936e+0
      vertex 2.075000e+1 1.530808e-16 2.834936e+0
    endloop
  endfacet
  facet normal 5.085898e-1 5.085898e-1 6.947466e-1
    outer loop
      vertex 2.012500e+1 -1.082532e+0 3.750000e+0
      vertex 2.091747e+1 -1.875000e+0 3.750000e+0
      vertex 2.137500e+1 -1.082532e+0 2.834936e+0
    endloop
  endfacet
  facet normal 5.085898e-1 5.085898e-1 6.947466e-1
    outer loop
      vertex 2.012500e+1 -1.082532e+0 3.750000e+0
      vertex 2.137500e+1 -1.082532e+0 2.834936e+0
      vertex 2.091747e+1 -6.250000e-1 2.834936e+0
    endloop
  endfacet
  facet normal 1.861568e-1 6.947466e-1 6.947466e-1
    outer loop
      vertex 2.091747e+1 -1.875000e+0 3.750000e+0
      vertex 2.200000e+1 -2.165064e+0 3.750000e+0
      vertex 2.200000e+1 -1.250000e+0 2.834936e+0
    endloop
  endfacet
  facet normal 1.861568e-1 6.947466e-1 6.947466e-1
    outer loop
      vertex 2.091747e+1 -1.875000e+0 3.750000e+0
      vertex 2.200000e+1 -1.250000e+0 2.834936e+0
      vertex 2.137500e+1 -1.082532e+0 2.834936e+0
    endloop
  endfacet
  facet normal -1.861568e-1 6.947466e-1 6.947466e-1
    outer loop
      vertex 2.200000e+1 -2.165064e+0 3.750000e+0
      vertex 2.308253e+1 -1.875000e+0 3.750000e+0
      vertex 2.262500e+1 -1.082532e+0 2.834936e+0
    endloop
  endfacet
  facet normal -1.861568e-1 6.947466e-1 6.947466e-1
    outer loop
      vertex 2.200000e+1 -2.165064e+0 3.750000e+0
      vertex 2.262500e+1 -1.082532e+0 2.834936e+0
      vertex 2.200000e+1 -1.250000e+0 2.834936e+0
    endloop
  endfacet
  facet normal -5.085898e-1 5.085898e-1 6.947466e-1
    outer loop
      vertex 2.308253e+1 -1.875000e+0 3.750000e+0
      vertex 2.387500e+1 -1.082532e+0 3.750000e+0
      vertex 2.308253e+1 -6.250000e-1 2.834936e+0
    endloop
  endfacet
  facet normal -5.085898e-1 5.085898e-1 6.947466e-1
    outer loop
      vertex 2.308253e+1 -1.875000e+0 3.750000e+0
      vertex 2.308253e+1 -6.250000e-1 2.834936e+0
      vertex 2.262500e+1 -1.082532e+0 2.834936e+0
    endloop
  endfacet
  facet normal -6.947466e-1 1.861568e-1 6.947466e-1
    outer loop
      vertex 2.387500e+1 -1.082532e+0 3.750000e+0
      vertex 2.416506e+1 -5.302876e-16 3.750000e+0
      vertex 2.325000e+1 -3.061617e-16 2.834936e+0
    endloop
  endfacet
  facet normal -6.947466e-1 1.861568e-1 6.947466e-1
    outer loop
      vertex 2.387500e+1 -1.082532e+0 3.750000e+0
      vertex 2.325000e+1 -3.061617e-16 2.834936e+0
      vertex 2.308253e+1 -6.250000e-1 2.834936e+0
    endloop
  endfacet
  facet normal -2.581989e-1 -6.918418e-2 9.636114e-1
    outer loop
      vertex 2.325000e+1 0.000000e+0 2.834936e+0
      vertex 2.308253e+1 6.250000e-1 2.834936e+0
      vertex 2.200000e+1 1.530808e-16 2.500000e+0
    endloop
  endfacet
  facet normal -2.588190e-1 0.000000e+0 9.659258e-1
    outer loop
      vertex 2.325000e+1 0.000000e+0 2.834936e+0
      vertex 2.200000e+1 1.530808e-16 2.500000e+0
      vertex 2.200000e+1 0.000000e+0 2.500000e+0
    endloop
  endfacet
  facet normal -1.890147e-1 -1.890147e-1 9.636114e-1
    outer loop
      vertex 2.308253e+1 6.250000e-1 2.834936e+0
      vertex 2.262500e+1 1.082532e+0 2.834936e+0
      vertex 2.200000e+1 2.651438e-16 2.500000e+0
    endloop
  endfacet
  facet normal -2.425356e-1 0.000000e+0 9.701425e-1
    outer loop
      vertex 2.308253e+1 6.250000e-1 2.834936e+0
      vertex 2.200000e+1 2.651438e-16 2.500000e+0
      vertex 2.200000e+1 1.530808e-16 2.500000e+0
    endloop
  endfacet
  facet normal -6.918418e-2 -2.581989e-1 9.636114e-1
    outer loop
      vertex 2.262500e+1 1.082532e+0 2.834936e+0
      vertex 2.200000e+1 1.250000e+0 2.834936e+0
      vertex 2.200000e+1 3.061617e-16 2.500000e+0
    endloop
  endfacet
  facet normal 0.000000e+0 -2.425356e-1 9.701425e-1
    outer loop
      vertex 2.262500e+1 1.082532e+0 2.834936e+0
      vertex 2.200000e+1 3.061617e-16 2.500000e+0
      vertex 2.200000e+1 2.651438e-16 2.500000e+0
    endloop
  endfacet
  facet normal 6.918418e-2 -2.581989e-1 9.636114e-1
    outer loop
      vertex 2.200000e+1 1.250000e+0 2.834936e+0
      vertex 2.137500e+1 1.082532e+0 2.834936e+0
      vertex 2.200000e+1 2.651438e-16 2.500000e+0
    endloop
  endfacet
  facet normal 0.000000e+0 -2.588190e-1 9.659258e-1
    outer loop
      vertex 2.200000e+1 1.250000e+0 2.834936e+0
      vertex 2.200000e+1 2.651438e-16 2.500000e+0
      vertex 2.200000e+1 3.061617e-16 2.500000e+0
    endloop
  endfacet
  facet normal 1.890147e-1 -1.890147e-1 9.636114e-1
    outer loop
      vertex 2.137500e+1 1.082532e+0 2.834936e+0
      vertex 2.091747e+1 6.250000e-1 2.834936e+0
      vertex 2.200000e+1 1.530808e-16 2.500000e+0
    endloop
  endfacet
  facet normal 0.000000e+0 -4.472136e-1 8.944272e-1
    outer loop
      vertex 2.137500e+1 1.082532e+0 2.834936e+0
      vertex 2.200000e+1 1.530808e-16 2.500000e+0
      vertex 2.200000e+1 2.651438e-16 2.500000e+0
    endloop
  endfacet
  facet normal 2.581989e-1 -6.918418e-2 9.636114e-1
    outer loop
      vertex 2.091747e+1 6.250000e-1 2.834936e+0
      vertex 2.075000e+1 1.530808e-16 2.834936e+0
      vertex 2.200000e+1 3.749399e-32 2.500000e+0
    endloop
  endfacet
  facet normal 2.425356e-1 0.000000e+0 9.701425e-1
    outer loop
      vertex 2.091747e+1 6.250000e-1 2.834936e+0
      vertex 2.200000e+1 3.749399e-32 2.500000e+0
      vertex 2.200000e+1 1.530808e-16 2.500000e+0
    endloop
  endfacet
  facet normal 2.581989e-1 6.918418e-2 9.636114e-1
    outer loop
      vertex 2.075000e+1 1.530808e-16 2.834936e+0
      vertex 2.091747e+1 -6.250000e-1 2.834936e+0
      vertex 2.200000e+1 -1.530808e-16 2.500000e+0
    endloop
  endfacet
  facet normal 2.588190e-1 0.000000e+0 9.659258e-1
    outer loop
      vertex 2.075000e+1 1.530808e-16 2.834936e+0
      vertex 2.200000e+1 -1.530808e-16 2.500000e+0
      vertex 2.200000e+1 3.749399e-32 2.500000e+0
    endloop
  endfacet
  facet normal 1.890147e-1 1.890147e-1 9.636114e-1
    outer loop
      vertex 2.091747e+1 -6.250000e-1 2.834936e+0
      vertex 2.137500e+1 -1.082532e+0 2.834936e+0
      vertex 2.200000e+1 -2.651438e-16 2.500000e+0
    endloop
  endfacet
  facet normal 4.472136e-1 0.000000e+0 8.944272e-1
    outer loop
      vertex 2.091747e+1 -6.250000e-1 2.834936e+0
      vertex 2.200000e+1 -2.651438e-16 2.500000e+0
      vertex 2.200000e+1 -1.530808e-16 2.500000e+0
    endloop
  endfacet
  facet normal 6.918418e-2 2.581989e-1 9.636114e-1
    outer loop
      vertex 2.137500e+1 -1.082532e+0 2.834936e+0
      vertex 2.200000e+1 -1.250000e+0 2.834936e+0
      vertex 2.200000e+1 -3.061617e-16 2.500000e+0
    endloop
  endfacet
  facet normal 0.000000e+0 2.425356e-1 9.701425e-1
    outer loop
      vertex 2.137500e+1 -1.082532e+0 2.834936e+0
      vertex 2.200000e+1 -3.061617e-16 2.500000e+0
      vertex 2.200000e+1 -2.651438e-16 2.500000e+0
    endloop
  endfacet
  facet normal -6.918418e-2 2.581989e-1 9.636114e-1
    outer loop
      vertex 2.200000e+1 -1.250000e+0 2.834936e+0
      vertex 2.262500e+1 -1.082532e+0 2.834936e+0
      vertex 2.200000e+1 -2.651438e-16 2.500000e+0
    endloop
  endfacet
  facet normal 0.000000e+0 2.588190e-1 9.659258e-1
    outer loop
      vertex 2.200000e+1 -1.250000e+0 2.834936e+0
      vertex 2.200000e+1 -2.651438e-16 2.500000e+0
      vertex 2.200000e+1 -3.061617e-16 2.500000e+0
    endloop
  endfacet
  facet normal -1.890147e-1 1.890147e-1 9.636114e-1
    outer loop
      vertex 2.262500e+1 -1.082532e+0 2.834936e+0
      vertex 2.308253e+1 -6.250000e-1 2.834936e+0
      vertex 2.200000e+1 -1.530808e-16 2.500000e+0
    endloop
  endfacet
  facet normal 0.000000e+0 4.472136e-1 8.944272e-1
    outer loop
      vertex 2.262500e+1 -1.082532e+0 2.834936e+0
      vertex 2.200000e+1 -1.530808e-16 2.500000e+0
      vertex 2.200000e+1 -2.651438e-16 2.500000e+0
    endloop
  endfacet
  facet normal -2.581989e-1 6.918418e-2 9.636114e-1
    outer loop
      vertex 2.308253e+1 -6.250000e-1 2.834936e+0
      vertex 2.325000e+1 -3.061617e-16 2.834936e+0
      vertex 2.200000e+1 -7.498799e-32 2.500000e+0
    endloop
  endfacet
  facet normal -2.425356e-1 0.000000e+0 9.701425e-1
    outer loop
      vertex 2.308253e+1 -6.250000e-1 2.834936e+0
      vertex 2.200000e+1 -7.498799e-32 2.500000e+0
      vertex 2.200000e+1 -1.530808e-16 2.500000e+0
    endloop
  endfacet
endsolid games/p4c-m4z3-666ax
